<?xml version="1.0" encoding="UTF-8"?>
<!-- Generator: Adobe Illustrator 16.2.0, SVG Export Plug-In . SVG Version: 6.00 Build 0)  -->
<!DOCTYPE svg PUBLIC "-//W3C//DTD SVG 1.1//EN" "http://www.w3.org/Graphics/SVG/1.1/DTD/svg11.dtd">
<svg version="1.1" id="Layer_1" xmlns="http://www.w3.org/2000/svg" xmlns:xlink="http://www.w3.org/1999/xlink" x="0px" y="0px" width="100%" height="100%" viewBox="0 0 205.771 28.369" enable-background="new 0 0 205.771 28.369" xml:space="preserve">
<path fill="#FFFFFF" d="M0,21.184c0.052,1.85,0.798,3.822,2.388,5.262c1.438,1.305,2.696,1.924,4.931,1.924h19.202  c0.733-0.012,1.104-0.389,1.104-1.119V1.121C27.625,0.378,27.247,0,26.504,0H1.118C0.381,0,0.003,0.375,0,1.115V21.184z"/>
<path fill="#A71930" d="M24.246,11.609v15.76c0,0.021,0.017,0.039,0.039,0.039h1.995c0.182-0.002,0.329-0.146,0.329-0.326V9.112  c0-0.021-0.015-0.035-0.033-0.038c-1.262-0.047-4.73-0.176-5.58-0.213c-1.045-0.046-2.009-0.135-2.344-0.162  c-0.335-0.024-0.878-0.051-0.878-0.672c0-0.627,0.596-0.644,0.878-0.664c0.282-0.021,1.455-0.115,2.346-0.174  c0.723-0.047,4.282-0.168,5.572-0.213h0c0.021,0,0.039-0.018,0.039-0.039V5.593c0-0.021-0.017-0.038-0.038-0.038  c-0.627,0.07-1.29,0.103-2.188,0.103c-4.315,0-8.434-1.081-9.89-1.081c-1.551,0-2.275,0.678-2.798,1.203  c-0.417,0.417-0.674,1.203-0.674,2.01c0,0.48,0.258,1.133,0.652,1.57c0.355,0.396,0.961,0.715,1.517,0.768  c0.921,0.08,1.794-0.368,1.967-1.104c0.213-0.922-0.252-1.27-0.481-1.328c-0.121-0.028-0.441-0.037-0.533,0.182  c0.136,0.631-0.409,0.924-0.802,0.889c-0.427-0.032-0.763-0.317-0.854-0.855c-0.134-0.775,0.375-1.557,1.643-1.512  c0.513,0.02,1.025,0.211,1.498,0.656c0.461,0.452,0.725,1.148,0.716,1.703c-0.016,0.828-0.27,1.561-0.823,2.108  c-0.62,0.618-1.39,0.883-2.397,0.883c-0.936,0-1.855-0.404-2.589-1.14C9.756,9.832,9.295,8.785,9.295,7.803  c0-1.371,0.546-4.56,5.227-4.56c1.335,0,5.504,0.476,9.861,0.476c0.958,0,1.607-0.018,2.187-0.048  c0.021-0.001,0.039-0.017,0.039-0.038v-2.33c0-0.182-0.148-0.328-0.329-0.328H1.343c-0.182,0-0.326,0.145-0.327,0.328v11.25  c0,0.021,0.018,0.039,0.039,0.039c0.005,0,0.009-0.002,0.014-0.003c1.568-0.64,3.053-0.435,3.691-0.196  C5,12.48,5.07,12.604,5.06,12.709c-0.01,0.094-0.058,0.177-0.282,0.188c-0.573,0.028-1.206,0.04-2,0.288  c-0.393,0.122-1.129,0.472-1.749,0.991c-0.007,0.006-0.012,0.016-0.013,0.025v1.465c0.002,0.02,0.018,0.035,0.038,0.035  c0.011,0,0.021-0.004,0.027-0.012h0c0.834-0.793,1.63-1.182,2.271-1.418c1.549-0.572,3.167-0.574,4.581-0.057  c0.295,0.109,1.03,0.433,0.84,0.803c-0.117,0.229-0.524,0.111-0.785,0.061c-0.735-0.133-1.605-0.098-2.412,0.102  c-1.237,0.305-2.284,0.943-3.049,1.849c-0.336,0.397-1.09,1.231-1.4,2.845c-0.079,0.42-0.114,0.894-0.108,1.373  c0.016,0.464,0.097,0.914,0.231,1.349c0.136,0.417,0.25,0.547,0.317,0.529c0.026-0.008,0.042-0.038,0.05-0.081  c-0.056-0.699-0.005-1.42,0.21-2.088c0.372-1.17,0.968-2.264,2.074-3.189c1.16-0.968,2.619-1.404,3.988-1.404  c1.114,0,2.222,0.358,3.178,1.234c0.776,0.712,1.111,1.873,0.957,2.916c-0.158,1.057-0.821,1.684-1.306,1.396  c-0.114-0.067-0.159-0.113-0.147-0.269c0.008-0.117,0.266-0.678,0.215-1.215c-0.054-0.566-0.466-1.116-0.743-1.342  c-0.457-0.374-1.133-0.615-1.814-0.615c-1.485,0-3.086,1.371-3.086,3.887c0,2.453,2.354,4.938,5.687,5.055h7.551  c0.021,0,0.039-0.018,0.039-0.039V11.316c0.009-0.393,0.329-0.709,0.72-0.709c0.394,0,0.713,0.316,0.721,0.709v16.053  c0,0.021,0.017,0.039,0.039,0.039h1.908c0.021,0,0.039-0.018,0.039-0.039V11.5v-0.045c0.014-0.656,0.549-1.186,1.207-1.186  c0.665,0,1.193,0.543,1.193,1.209L24.246,11.609z"/>
<g>
	<path fill="#ffffff" d="M166.871,20.089c0,0.116-0.078,0.175-0.214,0.175h-1.463c-0.098,0-0.176-0.039-0.195-0.137l-0.721-2.573   c-0.02-0.098-0.078-0.117-0.195-0.117h-3.159c-0.117,0-0.176,0.02-0.195,0.117l-0.722,2.573c-0.02,0.098-0.098,0.137-0.195,0.137   h-1.462c-0.136,0-0.214-0.059-0.214-0.175c0-0.02,0.02-0.039,0.02-0.078l3.627-11.895c0.02-0.098,0.078-0.136,0.194-0.136h1.054   c0.097,0,0.155,0.039,0.194,0.136l3.627,11.895C166.852,20.05,166.871,20.069,166.871,20.089z M162.776,11.957   c-0.059-0.195-0.137-0.487-0.234-0.858h-0.078l-0.234,0.877l-0.955,3.646c0,0.039-0.02,0.059-0.02,0.078   c0,0.117,0.078,0.176,0.215,0.176h2.047c0.137,0,0.215-0.059,0.215-0.176c0-0.02-0.02-0.059-0.02-0.078L162.776,11.957z"/>
	<path fill="#ffffff" d="M176.017,9.754c0,0.059-0.039,0.117-0.117,0.156l-1.248,0.624c-0.039,0.02-0.078,0.02-0.097,0.02   c-0.078,0-0.098-0.039-0.156-0.117c-0.448-0.604-0.78-1.092-1.618-1.092h-0.936c-0.976,0-1.756,0.78-1.756,1.755v6.045   c0,0.975,0.78,1.755,1.756,1.755h0.584c0.975,0,1.756-0.78,1.756-1.755v-1.268c0-0.117-0.078-0.195-0.195-0.195h-1.95   c-0.137,0-0.194-0.059-0.194-0.195v-1.17c0-0.137,0.058-0.195,0.194-0.195h3.705c0.136,0,0.194,0.059,0.194,0.195v2.828   c0,1.988-1.384,3.314-3.51,3.314h-0.584c-2.126,0-3.511-1.326-3.511-3.314v-6.045c0-1.989,1.385-3.315,3.511-3.315h0.936   C174.69,7.784,176.017,8.993,176.017,9.754z"/>
	<path fill="#ffffff" d="M182.569,20.264h-3.9c-0.137,0-0.195-0.059-0.195-0.194V8.174c0-0.137,0.059-0.195,0.195-0.195h3.9   c2.145,0,3.51,1.365,3.51,3.51v5.265C186.079,18.918,184.733,20.264,182.569,20.264z M184.323,11.294   c0-0.975-0.779-1.755-1.754-1.755h-2.146c-0.137,0-0.195,0.059-0.195,0.195v8.775c0,0.136,0.059,0.194,0.195,0.194h2.146   c0.975,0,1.754-0.8,1.754-1.755V11.294z"/>
	<path fill="#ffffff" d="M195.515,20.264h-6.631c-0.137,0-0.195-0.059-0.195-0.194V8.174c0-0.137,0.059-0.195,0.195-0.195h6.631   c0.116,0,0.194,0.058,0.194,0.195v1.17c0,0.137-0.059,0.195-0.194,0.195h-4.875c-0.137,0-0.195,0.059-0.195,0.195v3.315   c0,0.136,0.059,0.195,0.195,0.195h3.996c0.137,0,0.195,0.059,0.195,0.195v1.17c0,0.137-0.059,0.195-0.195,0.195h-3.996   c-0.137,0-0.195,0.059-0.195,0.194v3.511c0,0.136,0.059,0.194,0.195,0.194h4.875c0.116,0,0.194,0.059,0.194,0.195v1.17   C195.709,20.205,195.65,20.264,195.515,20.264z"/>
	<path fill="#ffffff" d="M205.771,20.108c0,0.097-0.078,0.155-0.195,0.155h-1.501l-0.176-0.137l-1.813-5.205l-0.156-0.117h-1.931   c-0.137,0-0.195,0.059-0.195,0.194v5.07c0,0.136-0.058,0.194-0.194,0.194h-1.364c-0.137,0-0.195-0.059-0.195-0.194V8.174   c0-0.137,0.059-0.195,0.195-0.195h3.899c2.146,0,3.51,1.365,3.51,3.51v0.195c0,0.683-0.37,1.521-1.111,2.223   c-0.351,0.331-0.702,0.39-0.702,0.585c0,0.02,0,0.039,0.02,0.059l1.892,5.46C205.771,20.05,205.771,20.069,205.771,20.108z    M203.899,11.294c0-0.975-0.78-1.755-1.755-1.755h-2.146c-0.137,0-0.195,0.059-0.195,0.195v3.315c0,0.136,0.059,0.195,0.195,0.195   h2.146c0.975,0,1.755-0.78,1.755-1.755V11.294z"/>
	<path fill="#ffffff" d="M40.186,20.459h-0.585c-2.125,0-3.51-1.326-3.51-3.314v-8.97c0-0.137,0.059-0.195,0.195-0.195h1.365   c0.117,0,0.194,0.058,0.194,0.195v8.97c0,0.975,0.781,1.755,1.756,1.755h0.585c0.975,0,1.755-0.78,1.755-1.755v-8.97   c0-0.137,0.059-0.195,0.195-0.195h1.365c0.116,0,0.194,0.058,0.194,0.195v8.97C43.696,19.133,42.312,20.459,40.186,20.459z"/>
	<path fill="#ffffff" d="M54.128,20.264H52.88l-0.176-0.098l-4.641-8.755l0.117,8.658c0,0.136-0.059,0.194-0.195,0.194h-1.365   c-0.137,0-0.195-0.059-0.195-0.194V8.174c0-0.137,0.059-0.195,0.195-0.195h1.248l0.176,0.097l4.621,8.736l-0.098-8.638   c0-0.137,0.059-0.195,0.195-0.195h1.365c0.137,0,0.195,0.058,0.195,0.195v11.895C54.324,20.205,54.265,20.264,54.128,20.264z"/>
	<path fill="#ffffff" d="M58.691,20.264h-1.365c-0.136,0-0.194-0.059-0.194-0.194V8.174c0-0.137,0.059-0.195,0.194-0.195h1.365   c0.117,0,0.195,0.058,0.195,0.195v11.895C58.886,20.205,58.828,20.264,58.691,20.264z"/>
	<path fill="#ffffff" d="M152.325,20.264h-1.365c-0.136,0-0.194-0.059-0.194-0.194V8.174c0-0.137,0.059-0.195,0.194-0.195h1.365   c0.117,0,0.195,0.058,0.195,0.195v11.895C152.521,20.205,152.462,20.264,152.325,20.264z"/>
	<path fill="#ffffff" d="M65.945,20.127c-0.039,0.098-0.098,0.137-0.195,0.137h-1.053c-0.098,0-0.156-0.039-0.195-0.137   L60.875,8.233c0-0.039-0.02-0.059-0.02-0.078c0-0.117,0.078-0.175,0.215-0.175h1.463c0.117,0,0.176,0.039,0.195,0.136l2.534,8.931   l2.457-8.931c0.02-0.098,0.078-0.136,0.195-0.136h1.462c0.137,0,0.215,0.058,0.215,0.175c0,0.02-0.02,0.059-0.02,0.078   L65.945,20.127z"/>
	<path fill="#ffffff" d="M78.386,20.264h-6.631c-0.136,0-0.194-0.059-0.194-0.194V8.174c0-0.137,0.059-0.195,0.194-0.195h6.631   c0.117,0,0.195,0.058,0.195,0.195v1.17c0,0.137-0.059,0.195-0.195,0.195h-4.875c-0.137,0-0.195,0.059-0.195,0.195v3.315   c0,0.136,0.059,0.195,0.195,0.195h3.998c0.136,0,0.194,0.059,0.194,0.195v1.17c0,0.137-0.059,0.195-0.194,0.195h-3.998   c-0.137,0-0.195,0.059-0.195,0.194v3.511c0,0.136,0.059,0.194,0.195,0.194h4.875c0.117,0,0.195,0.059,0.195,0.195v1.17   C78.582,20.205,78.523,20.264,78.386,20.264z"/>
	<path fill="#ffffff" d="M88.643,20.108c0,0.097-0.078,0.155-0.195,0.155h-1.501l-0.176-0.137l-1.813-5.205l-0.156-0.117h-1.931   c-0.137,0-0.195,0.059-0.195,0.194v5.07c0,0.136-0.058,0.194-0.194,0.194h-1.364c-0.137,0-0.195-0.059-0.195-0.194V8.174   c0-0.137,0.059-0.195,0.195-0.195h3.899c2.146,0,3.51,1.365,3.51,3.51v0.195c0,0.683-0.37,1.521-1.111,2.223   c-0.351,0.331-0.702,0.39-0.702,0.585c0,0.02,0,0.039,0.02,0.059l1.892,5.46C88.643,20.05,88.643,20.069,88.643,20.108z    M86.771,11.294c0-0.975-0.78-1.755-1.755-1.755h-2.146c-0.137,0-0.195,0.059-0.195,0.195v3.315c0,0.136,0.059,0.195,0.195,0.195   h2.146c0.975,0,1.755-0.78,1.755-1.755V11.294z"/>
	<path fill="#ffffff" d="M92.29,11.099c0,1.053,0.955,1.424,2.534,2.165c2.067,0.955,3.043,1.97,3.043,3.881   c0,1.969-1.385,3.314-3.51,3.314h-0.82c-0.936,0-1.695-0.234-2.125-0.565c-0.76-0.585-1.111-1.131-1.111-1.442   c0-0.059,0.039-0.098,0.117-0.137l1.229-0.624c0.039-0.02,0.078-0.039,0.098-0.039c0.078,0,0.117,0.058,0.176,0.136   c0.447,0.605,0.721,1.112,1.617,1.112h0.82c0.955,0,1.754-0.78,1.754-1.755c0-1.111-0.838-1.6-2.359-2.301   c-2.086-0.976-3.217-1.755-3.217-3.745c0-1.989,1.385-3.315,3.51-3.315h0.313c1.91,0,3.236,1.229,3.236,1.97   c0,0.059-0.039,0.117-0.117,0.156l-1.248,0.624c-0.039,0.02-0.078,0.02-0.098,0.02c-0.078,0-0.098-0.039-0.156-0.117   c-0.447-0.604-0.779-1.092-1.617-1.092h-0.313C93.089,9.344,92.29,10.105,92.29,11.099z"/>
	<path fill="#ffffff" d="M101.669,20.264h-1.365c-0.136,0-0.194-0.059-0.194-0.194V8.174c0-0.137,0.059-0.195,0.194-0.195h1.365   c0.117,0,0.195,0.058,0.195,0.195v11.895C101.865,20.205,101.806,20.264,101.669,20.264z"/>
	<path fill="#ffffff" d="M110.426,9.539h-2.242c-0.137,0-0.195,0.059-0.195,0.195v10.335c0,0.136-0.059,0.194-0.194,0.194h-1.365   c-0.136,0-0.194-0.059-0.194-0.194V9.734c0-0.137-0.059-0.195-0.195-0.195h-2.242c-0.137,0-0.195-0.058-0.195-0.195v-1.17   c0-0.137,0.059-0.195,0.195-0.195h6.629c0.137,0,0.195,0.058,0.195,0.195v1.17C110.621,9.481,110.563,9.539,110.426,9.539z"/>
	<path fill="#ffffff " d="M119.396,20.264h-6.631c-0.137,0-0.195-0.059-0.195-0.194V8.174c0-0.137,0.059-0.195,0.195-0.195h6.631   c0.116,0,0.194,0.058,0.194,0.195v1.17c0,0.137-0.059,0.195-0.194,0.195h-4.875c-0.137,0-0.195,0.059-0.195,0.195v3.315   c0,0.136,0.059,0.195,0.195,0.195h3.996c0.137,0,0.195,0.059,0.195,0.195v1.17c0,0.137-0.059,0.195-0.195,0.195h-3.996   c-0.137,0-0.195,0.059-0.195,0.194v3.511c0,0.136,0.059,0.194,0.195,0.194h4.875c0.116,0,0.194,0.059,0.194,0.195v1.17   C119.591,20.205,119.532,20.264,119.396,20.264z"/>
	<path fill="#ffffff" d="M127.684,9.539h-2.242c-0.137,0-0.195,0.059-0.195,0.195v10.335c0,0.136-0.059,0.194-0.195,0.194h-1.365   c-0.136,0-0.194-0.059-0.194-0.194V9.734c0-0.137-0.059-0.195-0.194-0.195h-2.243c-0.136,0-0.194-0.058-0.194-0.195v-1.17   c0-0.137,0.059-0.195,0.194-0.195h6.63c0.137,0,0.195,0.058,0.195,0.195v1.17C127.879,9.481,127.82,9.539,127.684,9.539z"/>
	<path fill="#ffffff" d="M136.653,20.264h-6.631c-0.137,0-0.195-0.059-0.195-0.194V8.174c0-0.137,0.059-0.195,0.195-0.195h6.631   c0.116,0,0.194,0.058,0.194,0.195v1.17c0,0.137-0.059,0.195-0.194,0.195h-4.875c-0.137,0-0.195,0.059-0.195,0.195v3.315   c0,0.136,0.059,0.195,0.195,0.195h3.996c0.137,0,0.195,0.059,0.195,0.195v1.17c0,0.137-0.059,0.195-0.195,0.195h-3.996   c-0.137,0-0.195,0.059-0.195,0.194v3.511c0,0.136,0.059,0.194,0.195,0.194h4.875c0.116,0,0.194,0.059,0.194,0.195v1.17   C136.848,20.205,136.789,20.264,136.653,20.264z"/>
	<path fill="#ffffff" d="M144.94,9.539h-2.242c-0.137,0-0.195,0.059-0.195,0.195v10.335c0,0.136-0.059,0.194-0.195,0.194h-1.365   c-0.136,0-0.194-0.059-0.194-0.194V9.734c0-0.137-0.059-0.195-0.194-0.195h-2.243c-0.136,0-0.194-0.058-0.194-0.195v-1.17   c0-0.137,0.059-0.195,0.194-0.195h6.63c0.137,0,0.195,0.058,0.195,0.195v1.17C145.136,9.481,145.077,9.539,144.94,9.539z"/>
</g>
</svg>